<svg data-v-0dd9719b="" version="1.0" xmlns="http://www.w3.org/2000/svg" xmlns:xlink="http://www.w3.org/1999/xlink" width="100%" height="100%" viewBox="0 0 340.000000 250.000000"
  preserveAspectRatio="xMidYMid meet" color-interpolation-filters="sRGB" style="margin: auto;">
  <rect data-v-0dd9719b="" x="0" y="0" width="100%" height="100%" fill="#fff" fill-opacity="0" class="background"></rect>
  <rect data-v-0dd9719b="" x="0" y="0" width="100%" height="100%" fill="url(#watermark)" fill-opacity="1" class="watermarklayer"></rect>
  <g data-v-0dd9719b="" fill="#2bbdc4" class="icon-text-wrapper icon-svg-group iconsvg" transform="translate(79.88500213623047,91.80593490600586)">
    <g class="iconsvg-imagesvg" transform="matrix(1,0,0,1,0,4.637594223022461)" opacity="1">
      <g>
        <rect fill="#2bbdc4" fill-opacity="0" stroke-width="2" x="0" y="0" width="60" height="57.11294084051211" class="image-rect"></rect> <svg x="0" y="0" width="60" height="57.11294084051211"
          filtersec="colorsb9533029575" class="image-svg-svg primary" style="overflow: visible;"><svg xmlns="http://www.w3.org/2000/svg" viewBox="0 0 86.859375 82.68000030517578">
            <g style="isolation:isolate">
              <g>
                <path d="M62.3 82.68a25.06 25.06 0 0 0 0-50.11H12.22v50.11z" fill="#2bbdc4"></path>
                <path d="M70.54 0H25.05a25.05 25.05 0 0 0 0 50.1h45.49z" fill="#e71970" style="mix-blend-mode:multiply"></path>
              </g>
            </g>
          </svg></svg>
        <!---->
      </g>
    </g>
    <g transform="translate(67,0)">
      <g data-gra="path-name" fill-rule="" class="tp-name iconsvg-namesvg" transform="matrix(1,0,0,1,0,0)" opacity="1">
        <g transform="scale(1)">
          <g>
            <path
              d="M16.45 0.65C30.42 0.65 34.77-4.62 34.77-13.59 34.77-21.78 33.41-25.35 22.16-28.28 16.57-29.71 15.6-30.16 15.6-32.24 15.6-34.38 17.23-35.36 21.39-35.36 24.96-35.36 30.62-34.52 32.5-33.8L32.5-44.13C29.96-44.98 26.46-45.76 20.8-45.76 10.01-45.76 3.12-42.38 3.12-31.72 3.12-23.73 5.46-20.61 15.34-18.33 21-16.96 21.84-15.86 21.84-13.97 21.84-11.18 21.13-10.27 15.73-10.27 11.7-10.27 6.44-11.12 3.45-11.96L3.45-0.84C6.63-0.07 11.44 0.65 16.45 0.65ZM47.91-38.74C53.63-38.74 54.6-39.33 54.6-45.05 54.6-50.7 53.63-51.16 47.91-51.16 42.25-51.16 41.21-50.7 41.21-45.05 41.21-39.33 42.25-38.74 47.91-38.74ZM41.73 0L54.08 0 54.08-35.1 41.73-35.1ZM104.39-35.75C98.61-35.75 95.16-34.26 93.41-31.46 91.65-34.52 88.59-35.75 83.59-35.75 77.94-35.75 75.4-34 73.84-31.53L73.84-35.1 61.49-35.1 61.49 0 73.84 0 73.84-22.82C74.17-24.7 75.01-26 78.19-26 80.99-26 82.55-25.29 82.55-20.93L82.55 0 94.9 0 94.9-21.97C95.36-24.51 96.33-26 99.71-26 102.64-26 104-25.29 104-20.93L104 0 116.35 0 116.35-22.55C116.35-32.7 112.06-35.75 104.39-35.75Z"
              transform="translate(-3.119999885559082, 51.15999984741211)"></path>
          </g>
          <!---->
          <!---->
          <!---->
          <!---->
          <!---->
          <!---->
          <!---->
        </g>
      </g>
      <g data-gra="path-slogan" fill-rule="" class="tp-slogan iconsvg-slogansvg" fill="#2bbdc4" transform="matrix(1,0,0,1,5,57.81000518798828)" opacity="1">
        <rect x="0" height="1" y="3.7899999618530273" width="29.914997100830078"></rect>
        <rect height="1" y="3.7899999618530273" width="29.914997100830078" x="73.31499862670898"></rect>
        <g transform="translate(32.91499710083008,0)">
          <g transform="scale(1)">
            <path
              d="M6.56 0L5.72-2.48L2.25-2.48L1.36 0L0.19 0L3.42-8.58L4.73-8.58L7.83 0L6.56 0ZM3.98-7.31L2.63-3.52L5.30-3.52L4.03-7.31L3.98-7.31ZM12.38 0L8.91 0L8.91-8.58L12.42-8.58Q15.89-8.39 16.03-4.41L16.03-4.41Q15.84-0.09 12.38 0L12.38 0ZM12.23-7.64L10.08-7.64L10.08-0.98L12.33-0.98Q14.77-1.13 14.86-4.31L14.86-4.31Q14.81-7.55 12.23-7.64L12.23-7.64ZM25.73-8.58L25.73 0L24.61 0L24.61-5.06Q24.61-5.77 24.61-7.22L24.61-7.22L22.17 0L21 0L18.61-7.22L18.56-7.22Q18.56-6.70 18.61-5.67L18.61-5.67Q18.61-5.16 18.61-5.06L18.61-5.06L18.61 0L17.44 0L17.44-8.58L19.13-8.58L21.61-1.31L24.05-8.58L25.73-8.58ZM27.61-8.58L28.78-8.58L28.78 0L27.61 0L27.61-8.58ZM32.16-8.58L36.47-1.64L36.47-8.58L37.59-8.58L37.59 0L36.28 0L31.92-6.94L31.88-6.94L31.88 0L30.75 0L30.75-8.58L32.16-8.58Z"
              transform="translate(-0.1875, 8.578125)"></path>
          </g>
        </g>
      </g>
    </g>
  </g>
  <defs v-gra="od"></defs>
</svg>