<svg id="visual" viewBox="0 0 900 600" width="900" height="600" xmlns="http://www.w3.org/2000/svg" xmlns:xlink="http://www.w3.org/1999/xlink" version="1.1"><rect x="0" y="0" width="900" height="600" fill="#FFFFFF"></rect><defs><linearGradient id="grad1_0" x1="33.3%" y1="0%" x2="100%" y2="100%"><stop offset="20%" stop-color="#4c7cc3" stop-opacity="1"></stop><stop offset="80%" stop-color="#4c7cc3" stop-opacity="1"></stop></linearGradient></defs><defs><linearGradient id="grad1_1" x1="33.3%" y1="0%" x2="100%" y2="100%"><stop offset="20%" stop-color="#4c7cc3" stop-opacity="1"></stop><stop offset="80%" stop-color="#abbbe1" stop-opacity="1"></stop></linearGradient></defs><defs><linearGradient id="grad1_2" x1="33.3%" y1="0%" x2="100%" y2="100%"><stop offset="20%" stop-color="#ffffff" stop-opacity="1"></stop><stop offset="80%" stop-color="#abbbe1" stop-opacity="1"></stop></linearGradient></defs><defs><linearGradient id="grad2_0" x1="0%" y1="0%" x2="66.7%" y2="100%"><stop offset="20%" stop-color="#4c7cc3" stop-opacity="1"></stop><stop offset="80%" stop-color="#4c7cc3" stop-opacity="1"></stop></linearGradient></defs><defs><linearGradient id="grad2_1" x1="0%" y1="0%" x2="66.7%" y2="100%"><stop offset="20%" stop-color="#abbbe1" stop-opacity="1"></stop><stop offset="80%" stop-color="#4c7cc3" stop-opacity="1"></stop></linearGradient></defs><defs><linearGradient id="grad2_2" x1="0%" y1="0%" x2="66.7%" y2="100%"><stop offset="20%" stop-color="#abbbe1" stop-opacity="1"></stop><stop offset="80%" stop-color="#ffffff" stop-opacity="1"></stop></linearGradient></defs><g transform="translate(900, 0)"><path d="M0 297.5C-12.7 277.7 -25.4 257.9 -40.7 256.8C-56 255.7 -73.9 273.1 -89.6 275.8C-105.3 278.5 -118.7 266.3 -128 251.3C-137.4 236.2 -142.8 218.4 -148.7 204.7C-154.6 191 -161.1 181.5 -179.6 179.6C-198.1 177.7 -228.5 183.4 -240.6 174.8C-252.7 166.3 -246.5 143.6 -249.5 127.1C-252.5 110.6 -264.8 100.4 -268.2 87.1C-271.6 73.9 -266.2 57.7 -269.6 42.7C-273 27.7 -285.3 13.8 -297.5 0L0 0Z" fill="#d5dcf0"></path><path d="M0 198.3C-8.5 185.1 -16.9 172 -27.1 171.2C-37.3 170.4 -49.3 182.1 -59.7 183.9C-70.2 185.6 -79.1 177.5 -85.4 167.5C-91.6 157.5 -95.2 145.6 -99.1 136.5C-103.1 127.3 -107.4 121 -119.7 119.7C-132.1 118.5 -152.4 122.2 -160.4 116.6C-168.5 110.9 -164.3 95.7 -166.3 84.7C-168.3 73.8 -176.5 66.9 -178.8 58.1C-181.1 49.3 -177.5 38.5 -179.8 28.5C-182 18.5 -190.2 9.2 -198.3 0L0 0Z" fill="#7f9bd2"></path><path d="M0 99.2C-4.2 92.6 -8.5 86 -13.6 85.6C-18.7 85.2 -24.6 91 -29.9 91.9C-35.1 92.8 -39.6 88.8 -42.7 83.8C-45.8 78.7 -47.6 72.8 -49.6 68.2C-51.5 63.7 -53.7 60.5 -59.9 59.9C-66 59.2 -76.2 61.1 -80.2 58.3C-84.2 55.4 -82.2 47.9 -83.2 42.4C-84.2 36.9 -88.3 33.5 -89.4 29C-90.5 24.6 -88.7 19.2 -89.9 14.2C-91 9.2 -95.1 4.6 -99.2 0L0 0Z" fill="#4c7cc3"></path></g><g transform="translate(0, 600)"><path d="M0 -297.5C11.9 -274 23.8 -250.6 39.9 -251.9C55.9 -253.1 76.1 -279.2 91.9 -282.9C107.7 -286.6 119.2 -268.1 129.4 -253.9C139.6 -239.8 148.6 -230.1 163.4 -224.9C178.2 -219.7 198.8 -219.1 207.2 -207.2C215.5 -195.3 211.6 -172.2 216.8 -157.5C222.1 -142.8 236.6 -136.5 246.8 -125.8C257.1 -115 263.1 -99.9 260.6 -84.7C258.1 -69.4 247.1 -54 251.9 -39.9C256.6 -25.8 277 -12.9 297.5 0L0 0Z" fill="#d5dcf0"></path><path d="M0 -198.3C7.9 -182.7 15.9 -167 26.6 -167.9C37.3 -168.8 50.7 -186.1 61.3 -188.6C71.8 -191.1 79.4 -178.7 86.3 -169.3C93.1 -159.9 99.1 -153.4 108.9 -149.9C118.8 -146.5 132.6 -146 138.1 -138.1C143.7 -130.2 141 -114.8 144.5 -105C148.1 -95.2 157.7 -91 164.5 -83.8C171.4 -76.7 175.4 -66.6 173.7 -56.4C172.1 -46.3 164.8 -36 167.9 -26.6C171.1 -17.2 184.7 -8.6 198.3 0L0 0Z" fill="#7f9bd2"></path><path d="M0 -99.2C4 -91.3 7.9 -83.5 13.3 -84C18.6 -84.4 25.4 -93.1 30.6 -94.3C35.9 -95.5 39.7 -89.4 43.1 -84.6C46.5 -79.9 49.5 -76.7 54.5 -75C59.4 -73.2 66.3 -73 69.1 -69.1C71.8 -65.1 70.5 -57.4 72.3 -52.5C74 -47.6 78.9 -45.5 82.3 -41.9C85.7 -38.3 87.7 -33.3 86.9 -28.2C86 -23.1 82.4 -18 84 -13.3C85.5 -8.6 92.3 -4.3 99.2 0L0 0Z" fill="#4c7cc3"></path></g></svg>