<svg id="visual" viewBox="0 0 960 540" width="960" height="540" xmlns="http://www.w3.org/2000/svg" xmlns:xlink="http://www.w3.org/1999/xlink" version="1.1"><rect x="0" y="0" width="960" height="540" fill="#FFFFFF"></rect><path d="M221 0L216.7 22.5C212.3 45 203.7 90 232.2 135C260.7 180 326.3 225 327.7 270C329 315 266 360 251.7 405C237.3 450 271.7 495 288.8 517.5L306 540L0 540L0 517.5C0 495 0 450 0 405C0 360 0 315 0 270C0 225 0 180 0 135C0 90 0 45 0 22.5L0 0Z" fill="#4c7cc3" stroke-linecap="round" stroke-linejoin="miter"></path></svg>